Coordinates
version=1
nRows=13
nColumns=36
inDegrees=yes

Units are S.I. units (second, meters, Newtons, ...)
If the header above contains a line with 'inDegrees', this indicates whether rotational values are in degrees (yes) or radians (no).

endheader
time	pelvis_tilt	pelvis_list	pelvis_rotation	pelvis_tx	pelvis_ty	pelvis_tz	hip_flexion_r	hip_adduction_r	hip_rotation_r	knee_angle_r	knee_angle_r_beta	ankle_angle_r	subtalar_angle_r	mtp_angle_r	hip_flexion_l	hip_adduction_l	hip_rotation_l	knee_angle_l	knee_angle_l_beta	ankle_angle_l	subtalar_angle_l	mtp_angle_l	lumbar_extension	lumbar_bending	lumbar_rotation	arm_flex_r	arm_add_r	arm_rot_r	elbow_flex_r	pro_sup_r	arm_flex_l	arm_add_l	arm_rot_l	elbow_flex_l	pro_sup_l
      1.14000000	      4.96427177	      5.33931185	      6.42696512	      0.36181016	      0.97763593	      0.16656799	     20.06632796	     -5.88755529	      0.15820099	    129.62104823	      2.26231407	     -1.93948273	    -15.35621372	    -12.63528282	     11.59478920	     12.50191992	      0.96874170	     46.77838746	      0.81643688	     26.28543730	     -5.03249182	      3.00277687	    -25.03753421	     -6.42358333	     -9.02727622	    -18.27858674	    -17.31837632	     -1.21473584	     94.46686622	     90.00021046	    -16.74099183	    -18.20992874	     -2.85223741	     84.80765626	     90.00021046
      1.14400000	      4.94266386	      4.70754800	      6.47331213	      0.38183208	      0.97771518	      0.16657458	     22.24706296	     -5.43310362	      0.18220755	    129.71772367	      2.26400138	     -1.53030114	    -14.27653060	    -12.86489860	     10.24442872	     11.78217390	      1.42294774	     46.71618630	      0.81535126	     27.16958591	     -4.81639829	      2.75035475	    -25.00735551	     -5.64487936	     -9.24152177	    -19.12340715	    -17.38671727	     -1.04039639	     93.03955024	     90.00021046	    -15.21765568	    -18.36102687	     -2.50493574	     85.74005561	     90.00021046
      1.14800000	      4.92681530	      3.99678383	      6.37171009	      0.40186566	      0.97802623	      0.16692481	     24.39849967	     -4.73089028	      0.19805912	    129.63810151	      2.26261171	     -1.14511122	    -13.58573109	    -13.11946987	      8.88285758	     10.89009835	      1.64151941	     46.56650219	      0.81273878	     27.94531074	     -4.45376412	      2.41758363	    -24.95233820	     -4.81991884	     -9.21877957	    -20.46860181	    -17.66883994	     -1.33554524	     91.77994738	     90.00021046	    -13.68064274	    -18.51521085	     -2.14349045	     86.67576475	     90.00021046
      1.15200000	      4.82240848	      3.30713763	      6.24902454	      0.42218510	      0.97853945	      0.16721785	     26.58315545	     -4.08771607	      0.13907713	    129.37178692	      2.25796364	     -0.94446753	    -13.08709147	    -14.12821704	      7.51123421	     10.02690209	      1.79899679	     46.12937135	      0.80510941	     28.23913596	     -4.19265092	      0.16187668	    -24.74459075	     -4.07335127	     -9.25595310	    -21.28991914	    -17.76810796	     -1.07142745	     90.42346049	     90.00021046	    -12.38752687	    -18.62376186	     -1.86347564	     87.87490120	     90.00021046
      1.15600000	      4.77392157	      2.56269184	      5.89103924	      0.44295615	      0.97957066	      0.16809995	     28.61905114	     -3.16664805	      0.09565331	    128.91084481	      2.24991868	     -0.62438199	    -12.93546067	    -14.06902089	      5.94076216	      9.00649155	      1.68919697	     45.47302817	      0.79365406	     28.60444306	     -3.81671036	     -0.86649636	    -24.52325283	     -3.38726274	     -9.01344085	    -21.90637379	    -17.71755009	     -0.59408358	     89.12498723	     90.00021046	    -11.16123013	    -18.74534675	     -1.62185485	     89.09564309	     90.00021046
      1.16000000	      4.51002282	      1.53940844	      6.21841727	      0.46305374	      0.98022556	      0.16788499	     30.77000263	     -2.42631159	     -0.81972289	    128.25479691	      2.23846849	     -0.44854871	    -13.08239040	    -14.12985415	      4.75946539	      7.80729509	      2.27697857	     45.09161080	      0.78699707	     28.98075619	     -3.33197029	     -1.29729954	    -24.12890072	     -2.15045250	     -9.29776795	    -22.85340755	    -17.92147783	     -0.46202103	     88.01742907	     90.00021046	    -10.00379486	    -18.75860273	     -1.50965638	     90.52791818	     90.00021046
      1.16400000	      4.14822006	      1.13743190	      6.19670827	      0.48377926	      0.98054645	      0.16740096	     33.06401304	     -2.57096013	     -0.81375772	    127.65965688	      2.22808133	     -0.31856119	    -11.71442638	    -14.38042094	      3.47482268	      7.40060406	      2.72735509	     44.40492762	      0.77501219	     29.02070460	     -3.43994837	     -1.51124381	    -23.58816073	     -1.59146319	     -9.48854102	    -24.35404551	    -18.37399942	     -0.58627621	     87.13309700	     90.00021046	     -9.01419357	    -18.73344650	     -1.39226187	     92.07835355	     90.00021046
      1.16800000	      3.75654291	      0.35072349	      6.12981102	      0.50484815	      0.98136834	      0.16767226	     35.12907643	     -1.92891969	     -1.31462987	    126.73731267	      2.21198339	     -0.00766390	    -11.72704051	    -14.55557577	      2.17961657	      6.36775047	      2.77876597	     43.55158390	      0.76011853	     29.03341272	     -2.86957329	     -1.88959757	    -22.94545573	     -0.77290998	     -9.54680635	    -25.45855904	    -18.47712225	     -0.58800171	     86.13467460	     90.00021046	     -8.16760555	    -18.67879178	     -1.38328881	     93.63131121	     90.00021046
      1.17200000	      3.35012656	     -0.38991497	      6.50586715	      0.52543058	      0.98240447	      0.16734833	     37.32470199	     -1.65475738	     -2.34075926	    125.73318360	      2.19445803	     -0.71677923	    -12.82929594	    -16.79881984	      0.94808962	      5.43678026	      3.33242784	     42.59932829	      0.74349854	     28.51849245	     -2.83723137	     -4.76839775	    -22.33605011	      0.15782660	     -9.98764933	    -26.26326880	    -18.47334431	     -0.22526530	     85.37695239	     90.00021046	     -7.28749057	    -18.70155372	     -1.31891306	     95.33748332	     90.00021046
      1.17600000	      2.99103438	     -1.04936021	      6.55347978	      0.54676312	      0.98365043	      0.16707898	     39.15567099	     -1.34923261	     -2.91866228	    124.60989026	      2.17485287	     -0.29442143	    -12.75794351	    -15.83798979	     -0.48844083	      4.60253242	      3.62934644	     41.46838607	      0.72375987	     27.82000631	     -2.37761676	     -7.13528197	    -21.68536272	      0.94263635	    -10.18109932	    -27.52354945	    -18.79715133	     -0.09605386	     84.67355086	     90.00021046	     -6.58510698	    -18.53111326	     -1.34397831	     97.04942548	     90.00021046
      1.18000000	      2.71363410	     -1.47786058	      6.57651180	      0.56844044	      0.98504990	      0.16664961	     40.97347708	     -1.38129095	     -3.56999966	    123.46129964	      2.15480618	     -0.81663948	    -13.53720395	    -15.51198183	     -2.14837345	      4.04280868	      3.97982770	     40.03963370	      0.69882344	     26.82367281	     -2.31965792	     -8.98011219	    -21.10629379	      1.50846358	    -10.43685338	    -28.84789661	    -18.95637066	     -0.21100588	     84.14049338	     90.00021046	     -5.96737056	    -18.44592772	     -1.36242285	     98.89051122	     90.00021046
      1.18400000	      2.54617956	     -2.28728835	      6.69356868	      0.59018954	      0.98713140	      0.16660295	     42.12379000	     -0.92995386	     -4.34925238	    121.86139468	      2.12688257	      0.62588516	    -12.87373651	    -12.39581690	     -3.85543265	      2.97195387	      4.30569369	     38.62575006	      0.67414651	     25.77595538	     -2.03460700	    -10.71389828	    -20.61064967	      2.46199645	    -10.63937317	    -30.13148592	    -19.13669578	     -0.25899507	     83.54379858	     90.00021046	     -5.40343853	    -18.23563285	     -1.40095179	    100.66877992	     90.00021046
      1.18800000	      2.30408240	     -2.94959089	      6.60711962	      0.61247693	      0.98903152	      0.16650937	     43.49364414	     -0.51341146	     -4.95333938	    120.30215087	      2.09966863	      0.71115624	    -13.46981816	    -14.01654049	     -5.60027361	      2.05736163	      4.33271020	     36.98979845	      0.64559377	     24.35884179	     -1.64912133	    -13.24897040	    -19.97680464	      3.21961043	    -10.77182145	    -31.50628832	    -19.52829591	     -0.17163563	     83.10173986	     90.00021046	     -5.02334632	    -18.05154637	     -1.55121820	    102.62127220	     90.00021046
